<?xml version="1.0" encoding="utf-8"?>
<!-- Generator: Adobe Illustrator 24.0.2, SVG Export Plug-In . SVG Version: 6.00 Build 0)  -->
<svg version="1.1" id="Capa_1" xmlns="http://www.w3.org/2000/svg" xmlns:xlink="http://www.w3.org/1999/xlink" x="0px" y="0px"
	 viewBox="0 0 482.7 95.1" style="enable-background:new 0 0 482.7 95.1;" xml:space="preserve">
<g>
	<path d="M141.7,95.1c-1.5,0-2.8,0-4.4,0c0-16.1,0-32.1,0-48.3c-17,0-33.6,0-50.6,0c0,16.2,0,32.2,0,48.3c-1.6,0-2.9,0-4.5,0
		c0-31.6,0-63.1,0-94.8c1.3,0,2.7,0,4.4,0c0,13.9,0,27.8,0,41.9c17,0,33.7,0,50.6,0c0-14,0-27.9,0-42c1.6,0,2.9,0,4.5,0
		C141.7,31.8,141.7,63.3,141.7,95.1z"/>
	<path d="M229,0.3c0.7,3.8,0.5,3.9-2.9,3.9c-14.8,0-29.6,0-44.4,0c-0.9,0-1.8,0-2.9,0c0,12.8,0,25.3,0,38.2c1,0,2,0,3,0
		c12.3,0,24.6,0,37,0c1.7,0,2.6,0.2,2.6,2.3c0,1.9-1,1.9-2.4,1.9c-7.2,0-14.3,0-21.5,0c-6.1,0-12.3,0-18.6,0c0,14.9,0,29.5,0,44.4
		c17.2,0,34.3,0,51.7,0c0,1.5,0,2.7,0,4c-18.7,0-37.4,0-56.4,0c0-31.6,0-63.2,0-94.8C192.5,0.3,210.8,0.3,229,0.3z"/>
	<path d="M350.1,95.1c-1.6,0-2.9,0-4.5,0c0-31.6,0-63.1,0-94.8c0.6-0.1,1.3-0.2,1.9-0.2c8.8,0,17.7-0.3,26.5,0.1
		c5.2,0.3,10.4,1.3,15.3,2.9c8.3,2.6,12.7,8.8,13.9,17.2c0.8,6.1,0.7,12.2-2,17.9c-4.1,8.7-11.5,12.9-20.5,13.9
		c-9.1,1-18.3,0.7-27.4,1c-3.2,0.1-3.2,0-3.2,3.3c0,11.9,0,23.8,0,35.7C350.1,93,350.1,93.9,350.1,95.1z M350.1,4.1
		c0,1.3,0,2.1,0,2.9c0,13,0,26,0,39c0,0.5-0.2,1.1,0,1.5c0.3,0.6,0.9,1.5,1.4,1.4c9.5-0.2,19.2,0.1,28.6-1c8.3-1,15.5-4.9,17.4-14.1
		c0.9-4.2,1-8.8,0.6-13.1c-0.8-8.7-6.5-13.2-14.7-15.1C372.6,3.1,361.5,4.7,350.1,4.1z"/>
	<path d="M263.8,95c0-31.6,0-63.1,0-94.7c1.4,0,2.7,0,4.3,0c0,30.2,0,60.3,0,90.7c16.9,0,33.6,0,50.4,0c0,1.5,0,2.7,0,4
		C300.3,95,282.1,95,263.8,95z"/>
	<path d="M52,86.2c-5-3.5-9.8-6.9-14.6-10.3C25.7,67.6,14,59.4,2.3,51.2c-3-2.1-3.1-5.5-0.1-7.6c15.9-11.2,31.7-22.3,47.6-33.5
		c0.7-0.5,1.4-0.9,2.1-1.4c1.1,3.5,0.8,4.8-2,6.7C35.6,25.4,21.3,35.5,7,45.6c-0.7,0.5-1.4,1.1-2.4,1.8C5.5,48,6.2,48.6,7,49.1
		c14,9.9,28,19.8,42.1,29.5C51.9,80.5,53,82.6,52,86.2z"/>
	<path d="M478,47.4c-0.8-0.6-1.5-1.2-2.1-1.6c-14.2-10-28.3-20-42.5-29.8c-2.8-1.9-3.5-4-2.7-7.2c0.7,0.5,1.4,0.9,2.1,1.3
		c15.9,11.2,31.9,22.4,47.8,33.6c2.9,2,2.9,5.4,0,7.5c-16,11.3-32,22.5-48,33.7c-0.6,0.4-1.2,0.8-1.9,1.2c-0.8-3.2-0.2-5.3,2.7-7.2
		c14.2-9.7,28.2-19.7,42.3-29.6C476.4,48.6,477.1,48.1,478,47.4z"/>
</g>
</svg>
